#tb 0: 1/25
#media_type 0: video
#codec_id 0: rawvideo
#dimensions 0: 416x240
#sar 0: 0/1
0,          0,          0,        1,   149760, 0x94a51701
0,          1,          1,        1,   149760, 0x67c71885
0,          2,          2,        1,   149760, 0x218f1751
0,          3,          3,        1,   149760, 0x56951bef
0,          4,          4,        1,   149760, 0x76aec81e
0,          5,          5,        1,   149760, 0x20df61ac
0,          6,          6,        1,   149760, 0x2eacf616
0,          7,          7,        1,   149760, 0x06322ce2
0,          8,          8,        1,   149760, 0xf14aa104
